<svg xmlns="http://www.w3.org/2000/svg" width="60.379" height="65.061" viewBox="0 0 60.379 65.061">
  <g id="logout" transform="translate(-16.719 0.5)">
    <g id="Group_39" data-name="Group 39" transform="translate(17.219)">
      <path id="Path_55" data-name="Path 55" d="M45.824,60.39H29.115a8.236,8.236,0,0,1-8.225-8.225V11.9a8.236,8.236,0,0,1,8.225-8.225H46.1A1.835,1.835,0,0,0,46.1,0H29.115a11.909,11.909,0,0,0-11.9,11.9V52.165a11.909,11.909,0,0,0,11.9,11.9H45.824a1.835,1.835,0,1,0,0-3.671Z" transform="translate(-17.219)" fill="#fad105" stroke="#fad105" stroke-width="1"/>
      <path id="Path_56" data-name="Path 56" d="M165.316,148.53l-11.665-11.665a1.836,1.836,0,0,0-2.6,2.6L159.592,148H122.354a1.835,1.835,0,1,0,0,3.671h37.238l-8.538,8.538a1.842,1.842,0,0,0,1.292,3.141,1.791,1.791,0,0,0,1.292-.544L165.3,151.141A1.834,1.834,0,0,0,165.316,148.53Z" transform="translate(-106.475 -117.791)" fill="#fad105" stroke="#fad105" stroke-width="1"/>
    </g>
  </g>
</svg>
